<svg xmlns="http://www.w3.org/2000/svg" width="1024" height="1024" viewBox="0 0 1024 1024">
<g>
<path d="M 0.00 0.00 L 1024.00 0.00 L 1024.00 1024.00 L 0.00 1024.00 ZM 468.50 593.27 L 473.50 597.75 L 474.00 523.13 L 474.50 448.50 L 511.63 448.24 L 548.75 447.98 L 555.12 440.24 C558.62,435.98 566.21,427.09 571.99,420.48 C591.45,398.23 613.72,372.57 621.87,363.00 C629.33,354.25 629.79,353.46 627.73,352.93 C626.50,352.62 561.38,352.30 483.00,352.22 C404.62,352.14 321.60,352.04 298.50,352.00 L 256.50 351.93 L 259.22 349.71 C260.71,348.50 287.04,332.44 317.72,314.04 C348.40,295.64 378.00,277.82 383.50,274.45 C394.67,267.60 445.11,237.29 457.50,229.98 C461.90,227.39 474.27,219.98 485.00,213.53 L 486.48 212.64 C507.48,200.00 510.79,198.00 513.31,198.73 C513.84,198.89 514.34,199.16 514.96,199.48 C519.46,201.81 634.52,270.22 661.00,286.32 C667.33,290.16 673.85,294.12 675.50,295.11 L 678.50 296.90 L 697.50 274.79 C707.95,262.62 718.93,249.71 721.91,246.09 C724.89,242.46 729.95,236.73 733.16,233.34 C736.37,229.95 738.99,226.57 738.97,225.84 C738.93,224.32 731.87,219.45 714.50,208.96 C707.90,204.97 693.95,196.54 683.50,190.23 C673.05,183.91 662.00,177.30 658.95,175.54 C655.90,173.78 642.40,165.65 628.95,157.48 C615.50,149.31 600.22,140.08 595.00,136.97 C589.78,133.87 580.33,128.18 574.00,124.33 C549.92,109.69 513.17,88.00 512.44,88.00 C512.02,88.00 508.04,90.11 503.59,92.69 C495.08,97.63 405.88,150.91 393.00,158.75 C383.38,164.60 225.09,259.67 214.50,265.96 C190.76,280.05 169.95,292.61 165.75,295.37 L 161.00 298.50 L 161.00 373.25 L 161.00 447.99 L 382.50 448.50 L 383.50 518.99 L 388.62 523.24 C391.43,525.59 406.25,538.53 421.54,552.00 C436.83,565.47 452.52,579.27 456.42,582.65 C460.31,586.02 465.75,590.81 468.50,593.27 ZM 496.00 918.68 C504.52,923.80 511.78,927.99 512.13,927.99 C512.48,928.00 526.65,919.61 543.63,909.37 C560.61,899.12 579.22,887.94 585.00,884.54 C590.78,881.13 602.03,874.37 610.00,869.51 C617.97,864.65 628.33,858.41 633.00,855.63 C646.20,847.79 714.02,807.10 718.50,804.33 C727.96,798.49 737.64,792.63 755.00,782.26 C774.93,770.36 838.78,731.86 853.50,722.88 L 862.50 717.39 L 862.52 518.94 C862.54,409.80 862.31,319.32 862.02,317.87 C861.56,315.53 859.73,317.69 846.00,336.79 C837.47,348.65 827.12,362.91 823.00,368.48 C818.88,374.05 809.20,387.28 801.50,397.89 C793.80,408.50 783.34,422.81 778.25,429.69 L 769.00 442.20 L 769.00 663.85 L 761.25 668.59 C743.98,679.13 684.66,714.87 672.50,722.04 C665.35,726.26 654.33,732.85 648.00,736.69 C641.67,740.53 615.12,756.44 589.00,772.04 C562.88,787.64 535.08,804.36 527.23,809.20 C519.38,814.04 512.53,818.00 511.99,818.00 C511.09,818.00 501.99,812.28 482.25,799.30 L 474.00 793.87 L 474.00 657.44 L 467.75 651.36 C464.31,648.02 452.50,637.48 441.50,627.93 C417.07,606.72 386.28,579.27 385.48,577.96 C385.15,577.43 384.46,577.00 383.94,577.00 C383.36,577.00 383.00,628.97 383.00,713.75 L 383.00 850.50 L 393.25 856.63 C398.89,859.99 417.45,871.20 434.50,881.54 C472.04,904.29 476.28,906.85 496.00,918.68 ZM 528.94 644.83 L 551.29 664.16 L 553.58 661.83 C554.84,660.55 557.81,656.73 560.19,653.34 C562.56,649.95 573.69,634.65 584.93,619.34 C608.64,587.03 615.26,577.97 623.50,566.55 C639.10,544.94 663.86,510.79 668.49,504.50 C684.19,483.19 696.36,466.45 718.92,435.14 C721.44,431.65 726.69,424.45 730.60,419.14 C734.50,413.84 744.25,400.43 752.25,389.33 C760.26,378.24 772.59,361.24 779.65,351.55 C786.72,341.86 797.82,326.64 804.32,317.72 C810.81,308.80 819.73,296.66 824.13,290.75 L 832.14 279.99 L 828.32 276.35 C821.17,269.51 813.52,263.64 801.67,255.87 C788.96,247.55 785.12,246.06 781.46,248.02 C778.71,249.50 744.46,288.08 722.50,314.43 C719.20,318.40 712.39,326.33 707.37,332.07 C702.35,337.81 675.31,369.27 647.27,402.00 C619.24,434.73 591.64,466.90 585.94,473.50 C556.70,507.35 550.16,514.98 547.78,518.02 L 545.19 521.33 L 539.35 515.88 C533.80,510.72 527.87,505.42 507.75,487.64 C502.94,483.39 498.99,480.27 498.99,480.70 C498.98,481.14 498.97,512.33 498.98,550.00 L 498.98 618.50 L 502.78 622.00 C504.87,623.92 516.64,634.20 528.94,644.83 ZM 336.49 822.78 C337.59,823.37 338.60,823.73 338.74,823.59 C338.89,823.45 339.04,799.14 339.09,769.57 L 339.17 715.80 L 335.84 713.54 C334.00,712.30 321.70,704.63 308.50,696.51 C295.30,688.39 278.65,678.14 271.50,673.74 C264.35,669.34 257.71,665.05 256.75,664.21 C255.11,662.78 255.00,657.40 255.00,577.85 L 255.00 493.00 L 161.00 493.00 L 161.00 716.79 L 165.75 719.75 C168.36,721.38 179.50,728.11 190.50,734.72 C201.50,741.32 219.95,752.47 231.50,759.48 C243.05,766.49 261.95,777.87 273.50,784.76 C285.05,791.66 303.50,802.79 314.50,809.50 C325.50,816.22 335.40,822.19 336.49,822.78 Z" fill="rgb(26,27,26)"/>
<path d="M 496.00 918.68 C476.28,906.85 472.04,904.29 434.50,881.54 C417.45,871.20 398.89,859.99 393.25,856.63 L 383.00 850.50 L 383.00 713.75 C383.00,628.97 383.36,577.00 383.94,577.00 C384.46,577.00 385.15,577.43 385.48,577.96 C386.28,579.27 417.07,606.72 441.50,627.93 C452.50,637.48 464.31,648.02 467.75,651.36 L 474.00 657.44 L 474.00 725.66 L 474.00 793.87 L 482.25 799.30 C501.99,812.28 511.09,818.00 511.99,818.00 C512.53,818.00 519.38,814.04 527.23,809.20 C535.08,804.36 562.88,787.64 589.00,772.04 C615.12,756.44 641.67,740.53 648.00,736.69 C654.33,732.85 665.35,726.26 672.50,722.04 C684.66,714.87 743.98,679.13 761.25,668.59 L 769.00 663.85 L 769.00 553.02 L 769.00 442.20 L 778.25 429.69 C783.34,422.81 793.80,408.50 801.50,397.89 C809.20,387.28 818.88,374.05 823.00,368.48 C827.12,362.91 837.47,348.65 846.00,336.79 C859.73,317.69 861.56,315.53 862.02,317.87 C862.31,319.32 862.54,409.80 862.52,518.94 L 862.50 717.39 L 853.50 722.88 C838.78,731.86 774.93,770.36 755.00,782.26 C737.64,792.63 727.96,798.49 718.50,804.33 C714.02,807.10 646.20,847.79 633.00,855.63 C628.33,858.41 617.97,864.65 610.00,869.51 C602.03,874.37 590.78,881.13 585.00,884.54 C579.22,887.94 560.61,899.12 543.63,909.37 C526.65,919.61 512.48,928.00 512.13,927.99 C511.78,927.99 504.52,923.80 496.00,918.68 ZM 336.49 822.78 C335.40,822.19 325.50,816.22 314.50,809.50 C303.50,802.79 285.05,791.66 273.50,784.76 C261.95,777.87 243.05,766.49 231.50,759.48 C219.95,752.47 201.50,741.32 190.50,734.72 C179.50,728.11 168.36,721.38 165.75,719.75 L 161.00 716.79 L 161.00 604.90 L 161.00 493.00 L 208.00 493.00 L 255.00 493.00 L 255.00 577.85 C255.00,657.40 255.11,662.78 256.75,664.21 C257.71,665.05 264.35,669.34 271.50,673.74 C278.65,678.14 295.30,688.39 308.50,696.51 C321.70,704.63 334.00,712.30 335.84,713.54 L 339.17 715.80 L 339.09 769.57 C339.04,799.14 338.89,823.45 338.74,823.59 C338.60,823.73 337.59,823.37 336.49,822.78 ZM 528.94 644.83 C516.64,634.20 504.87,623.92 502.78,622.00 L 498.98 618.50 L 498.98 550.00 C498.97,512.33 498.98,481.14 498.99,480.70 C498.99,480.27 502.94,483.39 507.75,487.64 C527.87,505.42 533.80,510.72 539.35,515.88 L 545.19 521.33 L 547.78 518.02 C550.16,514.98 556.70,507.35 585.94,473.50 C591.64,466.90 619.24,434.73 647.27,402.00 C675.31,369.27 702.35,337.81 707.37,332.07 C712.39,326.33 719.20,318.40 722.50,314.43 C744.46,288.08 778.71,249.50 781.46,248.02 C785.12,246.06 788.96,247.55 801.67,255.87 C813.52,263.64 821.17,269.51 828.32,276.35 L 832.14 279.99 L 824.13 290.75 C819.73,296.66 810.81,308.80 804.32,317.72 C797.82,326.64 786.72,341.86 779.65,351.55 C772.59,361.24 760.26,378.24 752.25,389.33 C744.25,400.43 734.50,413.84 730.60,419.14 C726.69,424.45 721.44,431.65 718.92,435.14 C696.36,466.45 684.19,483.19 668.49,504.50 C663.86,510.79 639.10,544.94 623.50,566.55 C615.26,577.97 608.64,587.03 584.93,619.34 C573.69,634.65 562.56,649.95 560.19,653.34 C557.81,656.73 554.84,660.55 553.58,661.83 L 551.29 664.16 L 528.94 644.83 ZM 468.50 593.27 C465.75,590.81 460.31,586.02 456.42,582.65 C452.52,579.27 436.83,565.47 421.54,552.00 C406.25,538.53 391.43,525.59 388.62,523.24 L 383.50 518.99 L 383.00 483.74 L 382.50 448.50 L 271.75 448.25 L 161.00 447.99 L 161.00 373.25 L 161.00 298.50 L 165.75 295.37 C169.95,292.61 190.76,280.05 214.50,265.96 C225.09,259.67 383.38,164.60 393.00,158.75 C405.88,150.91 495.08,97.63 503.59,92.69 C508.04,90.11 512.02,88.00 512.44,88.00 C513.17,88.00 549.92,109.69 574.00,124.33 C580.33,128.18 589.78,133.87 595.00,136.97 C600.22,140.08 615.50,149.31 628.95,157.48 C642.40,165.65 655.90,173.78 658.95,175.54 C662.00,177.30 673.05,183.91 683.50,190.23 C693.95,196.54 707.90,204.97 714.50,208.96 C731.87,219.45 738.93,224.32 738.97,225.84 C738.99,226.57 736.37,229.95 733.16,233.34 C729.95,236.73 724.89,242.46 721.91,246.09 C718.93,249.71 707.95,262.62 697.50,274.79 L 678.50 296.90 L 675.50 295.11 C673.85,294.12 667.33,290.16 661.00,286.32 C634.52,270.22 519.46,201.81 514.96,199.48 C511.33,197.60 511.91,197.33 485.00,213.53 C474.27,219.98 461.90,227.39 457.50,229.98 C445.11,237.29 394.67,267.60 383.50,274.45 C378.00,277.82 348.40,295.64 317.72,314.04 C287.04,332.44 260.71,348.50 259.22,349.71 L 256.50 351.93 L 298.50 352.00 C321.60,352.04 404.62,352.14 483.00,352.22 C561.38,352.30 626.50,352.62 627.73,352.93 C629.79,353.46 629.33,354.25 621.87,363.00 C613.72,372.57 591.45,398.23 571.99,420.48 C566.21,427.09 558.62,435.98 555.12,440.24 L 548.75 447.98 L 511.63 448.24 L 474.50 448.50 L 474.00 523.13 L 473.50 597.75 L 468.50 593.27 Z" fill="rgb(253,253,253)"/>
</g>
</svg>